<svg xmlns="http://www.w3.org/2000/svg" viewBox="0 0 48 48">
  <path d="M26.8284 24l6.3661 6.366a1.9936 1.9936 0 0 1-.0021 2.8264c-.781.781-2.047.7814-2.8263.0021L24 26.8285l-6.366 6.366a1.9936 1.9936 0 0 1-2.8264-.0021c-.781-.781-.7814-2.047-.0021-2.8263L21.1715 24l-6.366-6.366a1.9936 1.9936 0 0 1 .0021-2.8264c.781-.781 2.047-.7814 2.8263-.0021L24 21.1715l6.366-6.366a1.9936 1.9936 0 0 1 2.8264.0021c.781.781.7814 2.047.0021 2.8263L26.8285 24zM24 48C10.7452 48 0 37.2548 0 24S10.7452 0 24 0s24 10.7452 24 24-10.7452 24-24 24zm0-4c11.0457 0 20-8.9543 20-20S35.0457 4 24 4 4 12.9543 4 24s8.9543 20 20 20z"/>
</svg>
