<svg xmlns="http://www.w3.org/2000/svg" viewBox="0 0 58 76">
  <g fill="#000" fill-rule="nonzero">
    <path d="M48.0023 16.8728L46.1478 67.873c-.012.3287-.3213.627-.6537.627H12.5059c-.3258 0-.642-.305-.6537-.627L9.9977 16.8728c-.0703-1.9317-1.6932-3.4407-3.6249-3.3705-1.9317.0703-3.4407 1.6932-3.3705 3.6249L4.857 68.1274c.1485 4.0857 3.5555 7.3726 7.649 7.3726h32.9882c4.0995 0 7.5002-3.2795 7.649-7.3726l1.8546-51.0002c.0702-1.9317-1.4388-3.5546-3.3705-3.6249-1.9317-.0702-3.5546 1.4388-3.6249 3.3705z"/>
    <path d="M26.5 27v34c0 1.3807 1.1193 2.5 2.5 2.5s2.5-1.1193 2.5-2.5V27c0-1.3807-1.1193-2.5-2.5-2.5s-2.5 1.1193-2.5 2.5zM15.001 27.0735l1 34c.0407 1.3801 1.1924 2.466 2.5725 2.4254 1.3801-.0406 2.466-1.1923 2.4254-2.5724l-1-34c-.0406-1.3801-1.1923-2.466-2.5724-2.4254-1.3801.0406-2.466 1.1923-2.4254 2.5724zM38.001 26.9265l-1 34c-.0405 1.3801 1.0454 2.5318 2.4255 2.5724 1.3801.0406 2.5318-1.0453 2.5724-2.4254l1-34c.0406-1.3801-1.0453-2.5318-2.4254-2.5724-1.3801-.0406-2.5318 1.0453-2.5724 2.4254zM4 18h50c1.933 0 3.5-1.567 3.5-3.5S55.933 11 54 11H4C2.067 11 .5 12.567.5 14.5S2.067 18 4 18z"/>
    <path d="M22.3955 12.8489l1.0293-4.1172c.1468-.5873.971-1.2317 1.5714-1.2317h8.0076c.6013 0 1.4243.6431 1.5714 1.2317l1.0293 4.1172 6.791-1.6978-1.0293-4.1171C40.4403 3.3304 36.8184.5 33.0038.5h-8.0076c-3.8142 0-7.437 2.8322-8.3624 6.534l-1.0293 4.1171 6.791 1.6978z"/>
  </g>
</svg>
